<?xml version="1.0" encoding="utf-8"?>
<!-- Generator: Adobe Illustrator 25.4.1, SVG Export Plug-In . SVG Version: 6.00 Build 0)  -->
<svg version="1.1" id="Capa_1" xmlns="http://www.w3.org/2000/svg" xmlns:xlink="http://www.w3.org/1999/xlink" x="0px" y="0px"
	 viewBox="0 0 44.7 44.68" style="enable-background:new 0 0 44.7 44.68;" xml:space="preserve">
<style type="text/css">
	.st0{fill:#FFFFFF;}
</style>
<path class="st0" d="M44.7,2.24c0,13.43,0,26.86,0,40.29c-0.59,1.25-1.4,2.16-2.94,2.15c-3.29-0.02-6.59-0.02-9.88,0.01
	c-0.7,0.01-0.91-0.25-0.9-0.93c0.02-5.07,0.02-10.13,0-15.2c0-0.77,0.31-0.96,1-0.94c1.3,0.03,2.61-0.01,3.92,0.01
	c0.7,0.01,0.98-0.29,1.05-0.99c0.18-1.7,0.38-3.39,0.65-5.08c0.14-0.86-0.14-1.12-0.96-1.11c-1.62,0.03-3.23,0-4.85,0.01
	c-0.52,0-0.83-0.15-0.8-0.74c0.05-1.4,0.01-2.8,0.14-4.19c0.13-1.55,0.86-2.18,2.43-2.24c1.15-0.05,2.3-0.03,3.45-0.02
	c0.6,0,0.92-0.19,0.9-0.86c-0.03-1.58-0.03-3.17,0-4.75c0.01-0.58-0.18-0.86-0.79-0.87c-1.68-0.04-3.35-0.16-5.03-0.16
	c-4.27,0.01-7.43,2.52-8.15,6.7c-0.34,1.97-0.27,4.02-0.3,6.03c-0.01,0.86-0.29,1.15-1.14,1.11c-1.27-0.06-2.55,0-3.82-0.02
	c-0.63-0.01-0.9,0.27-0.89,0.9c0.02,1.77,0.02,3.54,0,5.31c-0.01,0.68,0.29,0.96,0.95,0.95c1.24-0.01,2.49,0.05,3.73-0.01
	c0.9-0.04,1.18,0.29,1.17,1.18c-0.03,4.91-0.03,9.82,0,14.73c0.01,0.89-0.26,1.17-1.17,1.17c-6.37-0.03-12.74-0.02-19.11-0.02
	c-2.39,0-3.33-0.94-3.33-3.32C0.03,28.89,0.05,16.43,0,3.96C-0.01,2.15,0.33,0.71,2.17,0C15.6,0,29.03,0,42.46,0
	C43.51,0.44,44.26,1.19,44.7,2.24z"/>
</svg>
