<?xml version="1.0" encoding="utf-8"?>
<!-- Generator: Adobe Illustrator 25.4.1, SVG Export Plug-In . SVG Version: 6.00 Build 0)  -->
<svg version="1.1" id="Capa_1" xmlns="http://www.w3.org/2000/svg" xmlns:xlink="http://www.w3.org/1999/xlink" x="0px" y="0px"
	 viewBox="0 0 43.85 44.68" style="enable-background:new 0 0 43.85 44.68;" xml:space="preserve">
<style type="text/css">
	.st0{fill:#C95312;}
</style>
<g>
	<path class="st0" d="M10.61-0.01c7.54,0,15.09,0,22.63,0c0.3,0.03,0.59,0.06,0.89,0.09c0.94,0.09,1.85,0.33,2.73,0.67
		c1.8,0.71,3.32,1.81,4.54,3.32c1.59,1.98,2.44,4.25,2.44,6.79c0.02,7.64,0.01,15.28,0.01,22.91c0,0.67-0.07,1.33-0.19,1.99
		c-0.25,1.33-0.74,2.58-1.46,3.73c-1.16,1.87-2.75,3.27-4.74,4.19c-1.47,0.68-3.02,1-4.64,1c-7.25,0-14.51,0-21.76,0
		c-1.18,0-2.34-0.17-3.47-0.54c-1.54-0.5-2.9-1.31-4.08-2.41c-0.92-0.86-1.67-1.84-2.25-2.95c-0.68-1.29-1.08-2.67-1.2-4.13
		C0.04,34.45,0.02,34.23,0,34.02c0-7.77,0-15.55,0-23.32c0.02-0.22,0.04-0.44,0.05-0.66c0.08-1.01,0.3-1.99,0.66-2.94
		c0.77-2.02,2.03-3.67,3.77-4.96c1.48-1.1,3.15-1.77,4.97-2.02C9.84,0.06,10.23,0.03,10.61-0.01z M40.43,22.35c0-3.13,0-6.27,0-9.4
		c0-0.44-0.02-0.89-0.07-1.33c-0.09-0.94-0.35-1.85-0.75-2.71c-0.78-1.7-1.97-3.05-3.56-4.05c-1.42-0.88-2.96-1.38-4.63-1.38
		c-6.26-0.02-12.52-0.01-18.79,0c-0.49,0-0.98,0.04-1.46,0.12C8.63,4.04,6.6,5.33,5.1,7.43c-1.15,1.62-1.69,3.44-1.68,5.42
		c0.01,6.33,0,12.66,0.01,18.98c0,0.5,0.04,1,0.1,1.49c0.19,1.47,0.73,2.81,1.61,4c1.89,2.57,4.45,3.88,7.65,3.89
		c6.1,0.01,12.2,0.01,18.29,0c0.58,0,1.18-0.05,1.75-0.15c1.53-0.26,2.91-0.89,4.11-1.87c2.28-1.87,3.46-4.28,3.48-7.24
		C40.44,28.75,40.43,25.55,40.43,22.35z"/>
	<path class="st0" d="M21.93,11.13c6.05,0.01,10.91,4.78,11.2,10.64c0.32,6.43-4.75,11.65-10.92,11.8
		c-6.24,0.15-11.31-4.75-11.5-10.87C10.52,16.35,15.59,11.14,21.93,11.13z M30.19,22.2c-0.03-0.32-0.05-0.8-0.13-1.27
		c-0.24-1.47-0.81-2.8-1.76-3.94c-1.99-2.38-4.53-3.42-7.61-2.99c-1.95,0.27-3.59,1.21-4.88,2.7c-1.66,1.91-2.33,4.14-2.07,6.65
		c0.12,1.13,0.48,2.2,1.03,3.2c1.62,2.92,4.8,4.57,8.11,4.19c1.62-0.19,3.05-0.81,4.29-1.87C29.15,27.16,30.13,24.97,30.19,22.2z"/>
	<path class="st0" d="M30.18,10.67c0.02-1.96,1.64-3.43,3.51-3.36c1.76,0.07,3.26,1.53,3.23,3.42c-0.02,1.9-1.6,3.35-3.42,3.32
		C31.77,14.03,30.19,12.63,30.18,10.67z"/>
</g>
<g>
</g>
<g>
</g>
<g>
</g>
<g>
</g>
<g>
</g>
<g>
</g>
</svg>
