<?xml version="1.0" encoding="utf-8"?>
<!-- Generator: Adobe Illustrator 25.4.1, SVG Export Plug-In . SVG Version: 6.00 Build 0)  -->
<svg version="1.1" id="Capa_1" xmlns="http://www.w3.org/2000/svg" xmlns:xlink="http://www.w3.org/1999/xlink" x="0px" y="0px"
	 viewBox="0 0 306.02 84.4" style="enable-background:new 0 0 306.02 84.4;" xml:space="preserve">
<style type="text/css">
	.st0{fill:#FFFFFF;}
</style>
<g>
	<g>
		<g>
			<path class="st0" d="M101.61,7.07c0,4.43-3.12,7.36-8.19,7.36H90.4v5.53c0,0.61-0.49,1.1-1.1,1.1h-1.95c-0.61,0-1.1-0.49-1.1-1.1
				V0.78c0-0.61,0.49-1.1,1.1-1.1h6.08C98.49-0.32,101.61,2.64,101.61,7.07z M97.4,7.07c0-2.26-1.47-3.54-3.97-3.54H90.4v7.06h3.02
				C95.93,10.58,97.4,9.3,97.4,7.07z"/>
			<path class="st0" d="M117.09,20.14l-1.13-3.33h-8.8l-1.13,3.33c-0.18,0.55-0.7,0.92-1.28,0.92h-2.26c-0.58,0-0.98-0.55-0.79-1.1
				l6.99-19.39c0.18-0.52,0.7-0.89,1.28-0.89h3.18c0.58,0,1.07,0.37,1.28,0.89l6.96,19.39c0.18,0.55-0.21,1.1-0.76,1.1h-2.26
				C117.8,21.06,117.28,20.69,117.09,20.14z M114.71,13.12l-3.15-9.25l-3.15,9.25H114.71z"/>
			<path class="st0" d="M139.85,21.06h-2.72c-0.49,0-0.95-0.27-1.19-0.7l-3.97-6.99c-0.12,0-0.24,0-0.34,0h-3.27v6.6
				c0,0.61-0.49,1.1-1.1,1.1h-1.95c-0.61,0-1.1-0.49-1.1-1.1V0.78c0-0.61,0.49-1.1,1.1-1.1h6.32c4.8,0,7.94,2.9,7.94,6.96
				c0,2.72-1.44,4.76-3.76,5.86l4.61,7.51C140.7,20.48,140.39,21.06,139.85,21.06z M128.36,9.79h3.27c2.11,0,3.73-0.98,3.73-3.15
				c0-1.92-1.44-3.12-3.73-3.12h-3.27V9.79z"/>
			<path class="st0" d="M155.05,17.21c0.61,0,1.1,0.49,1.1,1.1v1.65c0,0.61-0.49,1.1-1.1,1.1h-10.45c-0.61,0-1.1-0.49-1.1-1.1V0.78
				c0-0.61,0.49-1.1,1.1-1.1h10.17c0.58,0,1.07,0.49,1.07,1.1v1.65c0,0.61-0.49,1.1-1.07,1.1h-7.12v4.8h6.41
				c0.58,0,1.07,0.49,1.07,1.1v1.68c0,0.58-0.49,1.07-1.07,1.07h-6.41v5.04H155.05z"/>
			<path class="st0" d="M173.8-0.32h1.95c0.61,0,1.1,0.49,1.1,1.1v19.18c0,0.61-0.49,1.1-1.1,1.1h-1.77c-0.55,0-1.07-0.27-1.37-0.73
				l-8.98-13.41v13.04c0,0.61-0.49,1.1-1.1,1.1h-1.95c-0.61,0-1.1-0.49-1.1-1.1V0.78c0-0.61,0.49-1.1,1.1-1.1h1.8
				c0.52,0,1.04,0.27,1.34,0.73l8.98,13.41V0.78C172.7,0.17,173.19-0.32,173.8-0.32z"/>
			<path class="st0" d="M194.33,0.78v1.65c0,0.61-0.49,1.1-1.1,1.1h-4.06v16.43c0,0.61-0.46,1.1-1.07,1.1h-1.99
				c-0.58,0-1.07-0.49-1.07-1.1V3.53h-4.06c-0.58,0-1.07-0.49-1.07-1.1V0.78c0-0.61,0.49-1.1,1.07-1.1h12.25
				C193.84-0.32,194.33,0.17,194.33,0.78z"/>
			<path class="st0" d="M197.07,5.39l2.29-5.01c0.18-0.43,0.73-0.61,1.13-0.37l1.37,0.79c0.4,0.21,0.52,0.73,0.27,1.13l-2.9,4.64
				c-0.21,0.37-0.7,0.49-1.07,0.28l-0.76-0.43C197.04,6.25,196.92,5.79,197.07,5.39z"/>
			<path class="st0" d="M221.32,14.83c0,3.36-2.35,6.6-7.97,6.6c-3.51,0-6.72-1.25-8.12-3.97c-0.31-0.61,0-1.34,0.64-1.53l1.92-0.61
				c0.49-0.15,1.01,0.03,1.25,0.46c0.61,1.04,1.89,2.05,4.28,2.05c2.14,0,3.85-0.82,3.85-2.69c0-2.11-2.41-2.26-5.8-3.11
				c-4.31-1.07-5.74-3.21-5.74-6.17c0-4.03,3.09-6.57,7.54-6.57c3.08,0,5.62,1.34,6.84,3.82c0.31,0.61-0.06,1.34-0.73,1.53
				l-1.92,0.46c-0.46,0.12-0.95-0.09-1.19-0.52c-0.49-0.89-1.53-1.65-3.21-1.65c-1.74,0-3.24,0.92-3.24,2.66
				c0,2.38,2.72,2.75,4.7,3.21C219.49,9.94,221.32,11.41,221.32,14.83z"/>
		</g>
	</g>
	<g>
		<g>
			<g>
				<path class="st0" d="M141.14,77.73h-5.78c-1.04,0-2.01-0.58-2.53-1.49l-8.45-14.88c-0.26,0-0.52,0-0.72,0h-6.95v14.04
					c0,1.3-1.04,2.34-2.34,2.34h-4.16c-1.3,0-2.34-1.04-2.34-2.34V34.57c0-1.3,1.04-2.34,2.34-2.34h13.45
					c10.2,0,16.9,6.17,16.9,14.82c0,5.78-3.05,10.14-7.99,12.48l9.81,15.99C142.96,76.49,142.31,77.73,141.14,77.73z M116.71,53.75
					h6.95c4.48,0,7.93-2.08,7.93-6.69c0-4.09-3.05-6.63-7.93-6.63h-6.95V53.75z"/>
				<path class="st0" d="M180.72,32.23h4.16c1.3,0,2.34,1.04,2.34,2.34v40.82c0,1.3-1.04,2.34-2.34,2.34h-3.77
					c-1.17,0-2.27-0.58-2.92-1.56l-19.11-28.53v27.75c0,1.3-1.04,2.34-2.34,2.34h-4.16c-1.3,0-2.34-1.04-2.34-2.34V34.57
					c0-1.3,1.04-2.34,2.34-2.34h3.83c1.1,0,2.21,0.58,2.86,1.56l19.11,28.53V34.57C178.38,33.27,179.42,32.23,180.72,32.23z"/>
				<path class="st0" d="M218.94,69.54c1.3,0,2.34,1.04,2.34,2.34v3.51c0,1.3-1.04,2.34-2.34,2.34h-22.23
					c-1.3,0-2.34-1.04-2.34-2.34V34.57c0-1.3,1.04-2.34,2.34-2.34h21.64c1.23,0,2.27,1.04,2.27,2.34v3.51c0,1.3-1.04,2.34-2.27,2.34
					h-15.14v10.2h13.65c1.23,0,2.27,1.04,2.27,2.34v3.57c0,1.23-1.04,2.27-2.27,2.27h-13.65v10.72H218.94z"/>
				<path class="st0" d="M262.93,77.73h-5.78c-1.04,0-2.01-0.58-2.53-1.49l-8.45-14.88c-0.26,0-0.52,0-0.72,0h-6.95v14.04
					c0,1.3-1.04,2.34-2.34,2.34H232c-1.3,0-2.34-1.04-2.34-2.34V34.57c0-1.3,1.04-2.34,2.34-2.34h13.45c10.2,0,16.9,6.17,16.9,14.82
					c0,5.78-3.05,10.14-7.99,12.48l9.81,15.99C264.75,76.49,264.1,77.73,262.93,77.73z M238.5,53.75h6.95
					c4.48,0,7.93-2.08,7.93-6.69c0-4.09-3.05-6.63-7.93-6.63h-6.95V53.75z"/>
				<path class="st0" d="M306.02,64.47c0,7.15-5,14.04-16.96,14.04c-7.47,0-14.3-2.66-17.29-8.45c-0.65-1.3,0-2.86,1.36-3.25
					l4.09-1.3c1.04-0.32,2.14,0.06,2.66,0.97c1.3,2.21,4.03,4.35,9.1,4.35c4.55,0,8.19-1.75,8.19-5.72c0-4.48-5.13-4.81-12.35-6.63
					c-9.16-2.27-12.22-6.82-12.22-13.13c0-8.58,6.56-13.97,16.05-13.97c6.56,0,11.96,2.86,14.56,8.12c0.65,1.3-0.13,2.86-1.56,3.25
					l-4.09,0.97c-0.97,0.26-2.01-0.19-2.53-1.1c-1.04-1.88-3.25-3.51-6.82-3.51c-3.7,0-6.89,1.95-6.89,5.65
					c0,5.07,5.78,5.85,10.01,6.82C302.12,54.07,306.02,57.19,306.02,64.47z"/>
			</g>
		</g>
		<g>
			<g>
				<path class="st0" d="M32.63,66.61c0.78-0.78,1.95-0.84,2.86-0.26l3.44,2.27c1.23,0.78,1.36,2.53,0.33,3.57
					c-4.03,3.96-9.62,6.3-16.12,6.3C9.62,78.51,0,68.31,0,54.98c0-13.32,9.62-23.59,23.14-23.59c6.5,0,12.09,2.4,16.12,6.37
					c1.04,1.04,0.91,2.79-0.33,3.57l-3.44,2.27c-0.91,0.59-2.08,0.46-2.86-0.26c-2.34-2.14-5.52-3.51-9.49-3.51
					c-9.42,0-14.3,7.6-14.3,15.14c0,7.54,4.87,15.14,14.3,15.14C27.1,70.12,30.29,68.76,32.63,66.61z"/>
			</g>
		</g>
		<g>
			<path class="st0" d="M60.97,39.62c0-0.12-0.18-0.25-0.3-0.35c-0.02-0.02-0.18,0.05-0.19,0.09c-0.03,0.18-0.03,0.36-0.02,0.54
				c0,0.03,0.07,0.06,0.1,0.1c0.1,0.15,0.19,0.31,0.29,0.46C60.9,40.17,60.98,39.89,60.97,39.62z"/>
			<path class="st0" d="M60.85,40.46C60.85,40.46,60.85,40.46,60.85,40.46c0.32,0.05,0.56-0.09,0.77-0.32
				c-0.13-0.01-0.26,0-0.37,0.06C61.11,40.26,60.99,40.37,60.85,40.46z"/>
			<path class="st0" d="M63.24,40.02c0.53,0.13,0.9-0.05,1.17-0.49c0.46-0.76,1.21-1.1,2-1.42c1.63-0.64,4.91,0,5.71,1.58
				c0.01,0.01,0.04,0.01,0.07,0.01c0.02-0.04,0.05-0.08,0.07-0.12c1.76-3.93,3.53-7.87,5.29-11.8c-1.55-0.25-3.13-0.38-4.76-0.38
				c-1.19,0-2.35,0.08-3.5,0.21c-1.95,4.02-3.91,8.03-5.86,12.04C63.36,39.78,63.3,39.91,63.24,40.02z"/>
			<path class="st0" d="M63.79,52.66c-0.23,0.18-0.42,0.4-0.64,0.61c0.39,0.2,0.74,0.13,0.95-0.17c0.26-0.36,0.5-0.74,0.8-1.08
				c0.2-0.23,0.45-0.47,0.73-0.57c0.22-0.08,0.51,0.04,0.8,0.07c0.54-1.04,1.1-2.12,1.69-3.25c-0.22-0.16-0.42-0.31-0.63-0.44
				c-0.07-0.04-0.19-0.07-0.25-0.04c-0.36,0.2-0.85,0.28-0.83,0.85c0,0.07-0.06,0.15-0.1,0.22c-0.28,0.5-0.59,0.99-0.83,1.5
				C65.06,51.23,64.56,52.05,63.79,52.66z"/>
			<path class="st0" d="M61.45,57.28c-0.06,0.78-0.13,1.57-0.18,2.35c-0.01,0.11,0.06,0.23,0.09,0.34c0.04,0,0.08,0,0.13,0
				c0.89-1.46,1.79-2.92,2.69-4.4c-0.72,0.32-1.38,0.67-2.07,0.89C61.65,56.62,61.48,56.85,61.45,57.28z"/>
			<path class="st0" d="M59.68,47.32c0.02,0.02,0.05,0.05,0.07,0.07c0.59-0.24,1.18-0.47,1.76-0.72c0.17-0.07,0.33-0.19,0.47-0.31
				c0.55-0.44,1.14-0.65,1.83-0.31c0.27,0.14,0.47,0.03,0.62-0.22c0.21-0.35,0.17-0.74-0.17-1.13c-0.52-0.61-0.85-1.29-0.89-2.1
				c0-0.07-0.05-0.15-0.1-0.2c-0.28-0.22-0.56-0.44-0.86-0.67C61.51,43.57,60.59,45.45,59.68,47.32z"/>
			<path class="st0" d="M99.3,44.83c-1.49-3.47-3.54-6.5-6.15-9.09c-2.62-2.59-5.67-4.63-9.17-6.11c-1.91-0.81-3.89-1.4-5.94-1.76
				c-0.04,0.09-0.08,0.18-0.12,0.28c-1.77,3.88-3.55,7.75-5.33,11.62c-0.11,0.24-0.1,0.4,0.06,0.63c0.92,1.24,0.96,2.9,0.1,4.17
				c-0.11,0.16-0.38,0.25-0.6,0.3c-0.43,0.1-0.48,0.16-0.31,0.59c-0.12,0.04-0.24,0.07-0.41,0.12c0.06,0.14,0.11,0.27,0.17,0.4
				c0.23,0.44,0.17,0.63-0.28,0.82c-0.08,0.03-0.16,0.12-0.18,0.2c-0.11,0.47-0.2,0.54-0.68,0.52c-0.06,0-0.11,0-0.19,0
				c-0.01,0.07-0.04,0.13-0.03,0.17c0.1,0.37-0.03,0.5-0.41,0.45c-0.07-0.01-0.18,0.05-0.23,0.12c-0.36,0.45-0.36,0.45-0.91,0.3
				c-0.03-0.01-0.07-0.01-0.11-0.01c-0.53,1.09-1.09,2.17-1.58,3.28c-0.09,0.21,0.07,0.52,0.06,0.78c0,0.2-0.02,0.44-0.14,0.58
				c-0.52,0.62-1.07,1.22-1.62,1.82c-0.05,0.06-0.1,0.13-0.15,0.19c-1.11,1.65-2.21,3.31-3.32,4.96c-0.04,0.07-0.09,0.14-0.16,0.26
				c0.17,0.09,0.32,0.21,0.49,0.26c1.04,0.32,2.09,0.63,3.14,0.92c0.23,0.06,0.49,0.06,0.73,0.02c0.49-0.07,0.94-0.02,1.35,0.26
				c0.22,0.14,0.44,0.27,0.66,0.41c0.29,0.18,0.52,0.39,0.44,0.8c-0.02,0.09,0.16,0.3,0.28,0.33c0.36,0.08,0.56,0.3,0.65,0.62
				c0.25,0.84,0.63,1.61,1.14,2.33c0.34,0.48,0.09,0.92-0.51,0.97c-0.09,0.01-0.19,0-0.31,0c0.02,0.09,0.03,0.17,0.06,0.24
				c0.36,0.89,0.7,1.8,1.1,2.68c0.31,0.68,0.79,1.23,1.48,1.56c0.33,0.16,0.67,0.31,1.06,0.05c0.14-0.09,0.44-0.07,0.61,0.02
				c0.45,0.24,0.81,0.04,1.2-0.12c0.48-0.21,0.88-0.14,1.18,0.21c0.32,0.38,0.34,0.83-0.05,1.2c-0.36,0.34-0.8,0.61-1.25,0.94
				c-0.05,0.78-0.79,1.55-1.85,1.77c-0.49,0.1-1,0.14-1.51,0.15c-0.77,0.03-1.51,0.1-2.23,0.43c-0.89,0.41-1.69-0.11-1.81-1.07
				c-0.04-0.35-0.09-0.64,0.08-0.99c0.16-0.35,0-0.77-0.27-1.04c-1.13-1.11-1.97-2.4-2.55-3.87c-0.02-0.05-0.06-0.1-0.09-0.14
				c-0.43,0.16-0.84,0.36-1.27,0.46c-0.28,0.07-0.62,0.06-0.89-0.03c-1.11-0.37-2.22-0.53-3.36-0.2c-0.22,0.06-0.35-0.01-0.38-0.23
				c-0.04-0.31-0.07-0.63-0.09-0.95c-0.01-0.28,0-0.56,0-0.84c-1.62-0.18-3.02-0.92-4.51-1.5c-0.25,0.56-0.67,0.92-1.33,0.93
				c0.14,0.32,0.28,0.56,0.35,0.83c0.15,0.52-0.18,0.9-0.72,0.82c-0.22-0.03-0.43-0.13-0.63-0.21c-0.44-0.18-0.89-0.36-1.33-0.55
				c-0.06-0.03-0.11-0.09-0.21-0.17c0.32-0.09,0.62-0.12,0.87-0.24c0.37-0.16,0.74-0.35,1.06-0.6c0.15-0.12,0.19-0.41,0.21-0.63
				c0.04-0.27,0.01-0.54,0.01-0.89c-0.29-0.13-0.66-0.3-1.03-0.46c-0.83-0.37-1.65-0.75-2.49-1.1c-0.27-0.11-0.37-0.28-0.33-0.54
				c0.09-0.51,0.19-1.02,0.31-1.52c0.02-0.08,0.16-0.13,0.28-0.23c-0.52-1.98,0.17-3.77,1.21-5.49c0.71-1.17,1.62-2.17,2.59-3.1
				c-0.09-0.27-0.2-0.52-0.27-0.78c-0.19-0.79,0.11-1.4,0.72-1.89c1.25-1.01,2.63-1.79,4.18-2.22c0.84-0.23,1.34-0.7,1.71-1.48
				c0.72-1.53,1.53-3.02,2.28-4.48c-0.4-0.1-0.79-0.19-1.16-0.27c0.08,0.65-0.3,1.15-0.81,1.58c-0.33,0.28-0.39,0.27-0.65-0.06
				c-0.24-0.3-0.46-0.62-0.89-0.72c-0.08-0.02-0.21-0.28-0.17-0.36c0.35-0.73,0-1.23-0.52-1.68c-0.01-0.01-0.01-0.04-0.03-0.11
				c0.96-0.54,1.85-0.16,2.74,0.21c0.1-0.71-0.09-0.97-0.8-0.95c-0.64,0.02-1.13-0.22-1.57-0.64c0.01-0.04,0.01-0.07,0.02-0.11
				c0.12,0.02,0.29,0,0.34,0.07c0.31,0.42,0.74,0.5,1.21,0.54c0.19,0.02,0.37,0.08,0.58,0.12c-0.02-0.15-0.06-0.3-0.06-0.44
				c0-0.33,0.25-0.48,0.56-0.34c0.37,0.17,0.54,0.58,0.47,1.14c0.16-0.1,0.29-0.21,0.45-0.26c0.11-0.04,0.25,0.02,0.38,0.03
				c-0.03,0.12-0.06,0.24-0.11,0.36c-0.01,0.04-0.06,0.06-0.05,0.05c0.2,0.15,0.39,0.29,0.61,0.46c0.11-0.15,0.27-0.34,0.37-0.55
				c2-4.16,4-8.33,5.99-12.49c-2.5,0.34-4.9,0.98-7.19,1.96c-3.5,1.49-6.54,3.53-9.13,6.11c-2.59,2.59-4.64,5.62-6.15,9.09
				c-1.52,3.47-2.27,7.16-2.27,11.07c0,3.96,0.76,7.67,2.27,11.11c1.51,3.44,3.57,6.46,6.15,9.05c2.59,2.59,5.63,4.63,9.13,6.11
				c3.5,1.49,7.23,2.23,11.19,2.23c3.96,0,7.69-0.74,11.19-2.23c3.5-1.49,6.55-3.52,9.17-6.11c2.62-2.59,4.67-5.6,6.15-9.05
				c1.49-3.44,2.23-7.14,2.23-11.11C101.53,51.99,100.79,48.3,99.3,44.83z"/>
		</g>
	</g>
</g>
<g>
</g>
<g>
</g>
<g>
</g>
<g>
</g>
<g>
</g>
<g>
</g>
</svg>
