<?xml version="1.0" encoding="utf-8"?>
<!-- Generator: Adobe Illustrator 25.4.1, SVG Export Plug-In . SVG Version: 6.00 Build 0)  -->
<svg version="1.1" id="Capa_1" xmlns="http://www.w3.org/2000/svg" xmlns:xlink="http://www.w3.org/1999/xlink" x="0px" y="0px"
	 viewBox="0 0 306.02 85.11" style="enable-background:new 0 0 306.02 85.11;" xml:space="preserve">
<style type="text/css">
	.st0{fill:url(#SVGID_1_);}
	.st1{fill:url(#SVGID_00000176019483407919347550000009103431282960316046_);}
	.st2{fill:url(#SVGID_00000135659109209624433270000005640537727416616603_);}
	.st3{fill:url(#SVGID_00000167356701662302148310000006549754383587942575_);}
	.st4{fill:url(#SVGID_00000159469929882158385190000005265586090492429461_);}
	.st5{fill:url(#SVGID_00000073713636855916001720000016304117498153940359_);}
	.st6{fill:url(#SVGID_00000056391757424418504790000014202241048280235679_);}
	.st7{fill:url(#SVGID_00000102520406930857565840000018133037133353257869_);}
	.st8{fill:url(#SVGID_00000057838516269323052910000008654200211893181834_);}
	.st9{fill:url(#SVGID_00000004533197034433584500000011377087289808649860_);}
	.st10{fill:url(#SVGID_00000011710677137877002620000012670072260066649478_);}
	.st11{fill:url(#SVGID_00000080187998519727102220000004267116463299028648_);}
	.st12{fill:url(#SVGID_00000028303011383524286020000017272435386465750170_);}
</style>
<g>
	<g>
		<g>
			<path d="M101.61,7.78c0,4.43-3.12,7.36-8.19,7.36H90.4v5.53c0,0.61-0.49,1.1-1.1,1.1h-1.95c-0.61,0-1.1-0.49-1.1-1.1V1.49
				c0-0.61,0.49-1.1,1.1-1.1h6.08C98.49,0.39,101.61,3.35,101.61,7.78z M97.4,7.78c0-2.26-1.47-3.54-3.97-3.54H90.4v7.06h3.02
				C95.93,11.29,97.4,10.01,97.4,7.78z"/>
			<path d="M117.09,20.85l-1.13-3.33h-8.8l-1.13,3.33c-0.18,0.55-0.7,0.92-1.28,0.92h-2.26c-0.58,0-0.98-0.55-0.79-1.1l6.99-19.39
				c0.18-0.52,0.7-0.89,1.28-0.89h3.18c0.58,0,1.07,0.37,1.28,0.89l6.96,19.39c0.18,0.55-0.21,1.1-0.76,1.1h-2.26
				C117.8,21.77,117.28,21.4,117.09,20.85z M114.71,13.83l-3.15-9.25l-3.15,9.25H114.71z"/>
			<path d="M139.85,21.77h-2.72c-0.49,0-0.95-0.27-1.19-0.7l-3.97-6.99c-0.12,0-0.24,0-0.34,0h-3.27v6.6c0,0.61-0.49,1.1-1.1,1.1
				h-1.95c-0.61,0-1.1-0.49-1.1-1.1V1.49c0-0.61,0.49-1.1,1.1-1.1h6.32c4.8,0,7.94,2.9,7.94,6.96c0,2.72-1.44,4.76-3.76,5.86
				l4.61,7.51C140.7,21.19,140.39,21.77,139.85,21.77z M128.36,10.5h3.27c2.11,0,3.73-0.98,3.73-3.15c0-1.92-1.44-3.12-3.73-3.12
				h-3.27V10.5z"/>
			<path d="M155.05,17.92c0.61,0,1.1,0.49,1.1,1.1v1.65c0,0.61-0.49,1.1-1.1,1.1H144.6c-0.61,0-1.1-0.49-1.1-1.1V1.49
				c0-0.61,0.49-1.1,1.1-1.1h10.17c0.58,0,1.07,0.49,1.07,1.1v1.65c0,0.61-0.49,1.1-1.07,1.1h-7.12v4.8h6.41
				c0.58,0,1.07,0.49,1.07,1.1v1.68c0,0.58-0.49,1.07-1.07,1.07h-6.41v5.04h7.4V17.92z"/>
			<path d="M173.8,0.39h1.95c0.61,0,1.1,0.49,1.1,1.1v19.18c0,0.61-0.49,1.1-1.1,1.1h-1.77c-0.55,0-1.07-0.27-1.37-0.73l-8.98-13.41
				v13.04c0,0.61-0.49,1.1-1.1,1.1h-1.95c-0.61,0-1.1-0.49-1.1-1.1V1.49c0-0.61,0.49-1.1,1.1-1.1h1.8c0.52,0,1.04,0.27,1.34,0.73
				l8.98,13.41V1.49C172.7,0.88,173.19,0.39,173.8,0.39z"/>
			<path d="M194.33,1.49v1.65c0,0.61-0.49,1.1-1.1,1.1h-4.06v16.43c0,0.61-0.46,1.1-1.07,1.1h-1.99c-0.58,0-1.07-0.49-1.07-1.1V4.24
				h-4.06c-0.58,0-1.07-0.49-1.07-1.1V1.49c0-0.61,0.49-1.1,1.07-1.1h12.25C193.84,0.39,194.33,0.88,194.33,1.49z"/>
			<path d="M197.07,6.1l2.29-5.01c0.18-0.43,0.73-0.61,1.13-0.37l1.37,0.79c0.4,0.21,0.52,0.73,0.27,1.13l-2.9,4.64
				c-0.21,0.37-0.7,0.49-1.07,0.28l-0.76-0.43C197.04,6.96,196.92,6.5,197.07,6.1z"/>
			<path d="M221.32,15.54c0,3.36-2.35,6.6-7.97,6.6c-3.51,0-6.72-1.25-8.12-3.97c-0.31-0.61,0-1.34,0.64-1.53l1.92-0.61
				c0.49-0.15,1.01,0.03,1.25,0.46c0.61,1.04,1.89,2.05,4.28,2.05c2.14,0,3.85-0.82,3.85-2.69c0-2.11-2.41-2.26-5.8-3.11
				c-4.31-1.07-5.74-3.21-5.74-6.17c0-4.03,3.09-6.57,7.54-6.57c3.08,0,5.62,1.34,6.84,3.82c0.31,0.61-0.06,1.34-0.73,1.53
				l-1.92,0.46c-0.46,0.12-0.95-0.09-1.19-0.52c-0.49-0.89-1.53-1.65-3.21-1.65c-1.74,0-3.24,0.92-3.24,2.66
				c0,2.38,2.72,2.75,4.7,3.21C219.49,10.65,221.32,12.12,221.32,15.54z"/>
		</g>
	</g>
	<g>
		<g>
			<g>
				
					<linearGradient id="SVGID_1_" gradientUnits="userSpaceOnUse" x1="125.2328" y1="1.8503" x2="125.2328" y2="57.4751" gradientTransform="matrix(1 0 0 -1 0 87.42)">
					<stop  offset="0" style="stop-color:#C9C12B"/>
					<stop  offset="0.0797" style="stop-color:#CBAE26"/>
					<stop  offset="0.1961" style="stop-color:#CC951F"/>
					<stop  offset="0.3179" style="stop-color:#CC7E1A"/>
					<stop  offset="0.4445" style="stop-color:#CB6C17"/>
					<stop  offset="0.5781" style="stop-color:#CA5E14"/>
					<stop  offset="0.7232" style="stop-color:#C95613"/>
					<stop  offset="0.9015" style="stop-color:#C95312"/>
				</linearGradient>
				<path class="st0" d="M141.14,78.44h-5.78c-1.04,0-2.01-0.58-2.53-1.49l-8.45-14.88c-0.26,0-0.52,0-0.72,0h-6.95v14.04
					c0,1.3-1.04,2.34-2.34,2.34h-4.16c-1.3,0-2.34-1.04-2.34-2.34V35.28c0-1.3,1.04-2.34,2.34-2.34h13.45
					c10.2,0,16.9,6.17,16.9,14.82c0,5.78-3.05,10.14-7.99,12.48l9.81,15.99C142.96,77.2,142.31,78.44,141.14,78.44z M116.71,54.46
					h6.95c4.48,0,7.93-2.08,7.93-6.69c0-4.09-3.05-6.63-7.93-6.63h-6.95V54.46z"/>
				
					<linearGradient id="SVGID_00000067225701519035111840000009409533354292087936_" gradientUnits="userSpaceOnUse" x1="168.73" y1="1.8503" x2="168.73" y2="57.4751" gradientTransform="matrix(1 0 0 -1 0 87.42)">
					<stop  offset="0" style="stop-color:#C9C12B"/>
					<stop  offset="0.0797" style="stop-color:#CBAE26"/>
					<stop  offset="0.1961" style="stop-color:#CC951F"/>
					<stop  offset="0.3179" style="stop-color:#CC7E1A"/>
					<stop  offset="0.4445" style="stop-color:#CB6C17"/>
					<stop  offset="0.5781" style="stop-color:#CA5E14"/>
					<stop  offset="0.7232" style="stop-color:#C95613"/>
					<stop  offset="0.9015" style="stop-color:#C95312"/>
				</linearGradient>
				<path style="fill:url(#SVGID_00000067225701519035111840000009409533354292087936_);" d="M180.72,32.94h4.16
					c1.3,0,2.34,1.04,2.34,2.34V76.1c0,1.3-1.04,2.34-2.34,2.34h-3.77c-1.17,0-2.27-0.58-2.92-1.56l-19.11-28.53V76.1
					c0,1.3-1.04,2.34-2.34,2.34h-4.16c-1.3,0-2.34-1.04-2.34-2.34V35.28c0-1.3,1.04-2.34,2.34-2.34h3.83c1.1,0,2.21,0.58,2.86,1.56
					l19.11,28.53V35.28C178.38,33.98,179.42,32.94,180.72,32.94z"/>
				
					<linearGradient id="SVGID_00000039833673000392401260000015132906806447400334_" gradientUnits="userSpaceOnUse" x1="207.825" y1="1.8503" x2="207.825" y2="57.4751" gradientTransform="matrix(1 0 0 -1 0 87.42)">
					<stop  offset="0" style="stop-color:#C9C12B"/>
					<stop  offset="0.0797" style="stop-color:#CBAE26"/>
					<stop  offset="0.1961" style="stop-color:#CC951F"/>
					<stop  offset="0.3179" style="stop-color:#CC7E1A"/>
					<stop  offset="0.4445" style="stop-color:#CB6C17"/>
					<stop  offset="0.5781" style="stop-color:#CA5E14"/>
					<stop  offset="0.7232" style="stop-color:#C95613"/>
					<stop  offset="0.9015" style="stop-color:#C95312"/>
				</linearGradient>
				<path style="fill:url(#SVGID_00000039833673000392401260000015132906806447400334_);" d="M218.94,70.25
					c1.3,0,2.34,1.04,2.34,2.34v3.51c0,1.3-1.04,2.34-2.34,2.34h-22.23c-1.3,0-2.34-1.04-2.34-2.34V35.28c0-1.3,1.04-2.34,2.34-2.34
					h21.64c1.23,0,2.27,1.04,2.27,2.34v3.51c0,1.3-1.04,2.34-2.27,2.34h-15.14v10.2h13.65c1.23,0,2.27,1.04,2.27,2.34v3.57
					c0,1.23-1.04,2.27-2.27,2.27h-13.65v10.72h15.73V70.25z"/>
				
					<linearGradient id="SVGID_00000015353728320521903700000018288957275225206948_" gradientUnits="userSpaceOnUse" x1="247.0228" y1="1.8503" x2="247.0228" y2="57.4751" gradientTransform="matrix(1 0 0 -1 0 87.42)">
					<stop  offset="0" style="stop-color:#C9C12B"/>
					<stop  offset="0.0797" style="stop-color:#CBAE26"/>
					<stop  offset="0.1961" style="stop-color:#CC951F"/>
					<stop  offset="0.3179" style="stop-color:#CC7E1A"/>
					<stop  offset="0.4445" style="stop-color:#CB6C17"/>
					<stop  offset="0.5781" style="stop-color:#CA5E14"/>
					<stop  offset="0.7232" style="stop-color:#C95613"/>
					<stop  offset="0.9015" style="stop-color:#C95312"/>
				</linearGradient>
				<path style="fill:url(#SVGID_00000015353728320521903700000018288957275225206948_);" d="M262.93,78.44h-5.78
					c-1.04,0-2.01-0.58-2.53-1.49l-8.45-14.88c-0.26,0-0.52,0-0.72,0h-6.95v14.04c0,1.3-1.04,2.34-2.34,2.34H232
					c-1.3,0-2.34-1.04-2.34-2.34V35.28c0-1.3,1.04-2.34,2.34-2.34h13.45c10.2,0,16.9,6.17,16.9,14.82c0,5.78-3.05,10.14-7.99,12.48
					l9.81,15.99C264.75,77.2,264.1,78.44,262.93,78.44z M238.5,54.46h6.95c4.48,0,7.93-2.08,7.93-6.69c0-4.09-3.05-6.63-7.93-6.63
					h-6.95V54.46z"/>
				
					<linearGradient id="SVGID_00000063598790508168223440000013917200348826885254_" gradientUnits="userSpaceOnUse" x1="288.7681" y1="1.8503" x2="288.7681" y2="57.4751" gradientTransform="matrix(1 0 0 -1 0 87.42)">
					<stop  offset="0" style="stop-color:#C9C12B"/>
					<stop  offset="0.0797" style="stop-color:#CBAE26"/>
					<stop  offset="0.1961" style="stop-color:#CC951F"/>
					<stop  offset="0.3179" style="stop-color:#CC7E1A"/>
					<stop  offset="0.4445" style="stop-color:#CB6C17"/>
					<stop  offset="0.5781" style="stop-color:#CA5E14"/>
					<stop  offset="0.7232" style="stop-color:#C95613"/>
					<stop  offset="0.9015" style="stop-color:#C95312"/>
				</linearGradient>
				<path style="fill:url(#SVGID_00000063598790508168223440000013917200348826885254_);" d="M306.02,65.18
					c0,7.15-5,14.04-16.96,14.04c-7.47,0-14.3-2.66-17.29-8.45c-0.65-1.3,0-2.86,1.36-3.25l4.09-1.3c1.04-0.32,2.14,0.06,2.66,0.97
					c1.3,2.21,4.03,4.35,9.1,4.35c4.55,0,8.19-1.75,8.19-5.72c0-4.48-5.13-4.81-12.35-6.63c-9.16-2.27-12.22-6.82-12.22-13.13
					c0-8.58,6.56-13.97,16.05-13.97c6.56,0,11.96,2.86,14.56,8.12c0.65,1.3-0.13,2.86-1.56,3.25l-4.09,0.97
					c-0.97,0.26-2.01-0.19-2.53-1.1c-1.04-1.88-3.25-3.51-6.82-3.51c-3.7,0-6.89,1.95-6.89,5.65c0,5.07,5.78,5.85,10.01,6.82
					C302.12,54.78,306.02,57.9,306.02,65.18z"/>
			</g>
		</g>
		<g>
			<g>
				
					<linearGradient id="SVGID_00000047053677803634132280000017551599933006399150_" gradientUnits="userSpaceOnUse" x1="19.9793" y1="1.8503" x2="19.9793" y2="57.4751" gradientTransform="matrix(1 0 0 -1 0 87.42)">
					<stop  offset="0" style="stop-color:#C9C12B"/>
					<stop  offset="0.0797" style="stop-color:#CBAE26"/>
					<stop  offset="0.1961" style="stop-color:#CC951F"/>
					<stop  offset="0.3179" style="stop-color:#CC7E1A"/>
					<stop  offset="0.4445" style="stop-color:#CB6C17"/>
					<stop  offset="0.5781" style="stop-color:#CA5E14"/>
					<stop  offset="0.7232" style="stop-color:#C95613"/>
					<stop  offset="0.9015" style="stop-color:#C95312"/>
				</linearGradient>
				<path style="fill:url(#SVGID_00000047053677803634132280000017551599933006399150_);" d="M32.63,67.32
					c0.78-0.78,1.95-0.84,2.86-0.26l3.44,2.27c1.23,0.78,1.36,2.53,0.33,3.57c-4.03,3.96-9.62,6.3-16.12,6.3
					C9.62,79.22,0,69.02,0,55.69C0,42.37,9.62,32.1,23.14,32.1c6.5,0,12.09,2.4,16.12,6.37c1.04,1.04,0.91,2.79-0.33,3.57
					l-3.44,2.27c-0.91,0.59-2.08,0.46-2.86-0.26c-2.34-2.14-5.52-3.51-9.49-3.51c-9.42,0-14.3,7.6-14.3,15.14s4.87,15.14,14.3,15.14
					C27.1,70.83,30.29,69.47,32.63,67.32z"/>
			</g>
		</g>
		<g>
			
				<linearGradient id="SVGID_00000057136815465100433030000017676648455329811880_" gradientUnits="userSpaceOnUse" x1="60.7124" y1="1.8503" x2="60.7124" y2="57.4751" gradientTransform="matrix(1 0 0 -1 0 87.42)">
				<stop  offset="0" style="stop-color:#C9C12B"/>
				<stop  offset="0.0797" style="stop-color:#CBAE26"/>
				<stop  offset="0.1961" style="stop-color:#CC951F"/>
				<stop  offset="0.3179" style="stop-color:#CC7E1A"/>
				<stop  offset="0.4445" style="stop-color:#CB6C17"/>
				<stop  offset="0.5781" style="stop-color:#CA5E14"/>
				<stop  offset="0.7232" style="stop-color:#C95613"/>
				<stop  offset="0.9015" style="stop-color:#C95312"/>
			</linearGradient>
			<path style="fill:url(#SVGID_00000057136815465100433030000017676648455329811880_);" d="M60.97,40.33c0-0.12-0.18-0.25-0.3-0.35
				c-0.02-0.02-0.18,0.05-0.19,0.09c-0.03,0.18-0.03,0.36-0.02,0.54c0,0.03,0.07,0.06,0.1,0.1c0.1,0.15,0.19,0.31,0.29,0.46
				C60.9,40.88,60.98,40.6,60.97,40.33z"/>
			
				<linearGradient id="SVGID_00000025428505102382361440000013139927865332921243_" gradientUnits="userSpaceOnUse" x1="61.235" y1="1.8503" x2="61.235" y2="57.4751" gradientTransform="matrix(1 0 0 -1 0 87.42)">
				<stop  offset="0" style="stop-color:#C9C12B"/>
				<stop  offset="0.0797" style="stop-color:#CBAE26"/>
				<stop  offset="0.1961" style="stop-color:#CC951F"/>
				<stop  offset="0.3179" style="stop-color:#CC7E1A"/>
				<stop  offset="0.4445" style="stop-color:#CB6C17"/>
				<stop  offset="0.5781" style="stop-color:#CA5E14"/>
				<stop  offset="0.7232" style="stop-color:#C95613"/>
				<stop  offset="0.9015" style="stop-color:#C95312"/>
			</linearGradient>
			<path style="fill:url(#SVGID_00000025428505102382361440000013139927865332921243_);" d="M60.85,41.17L60.85,41.17
				c0.32,0.05,0.56-0.09,0.77-0.32c-0.13-0.01-0.26,0-0.37,0.06C61.11,40.97,60.99,41.08,60.85,41.17z"/>
			
				<linearGradient id="SVGID_00000148635288752563647930000015057324344467337896_" gradientUnits="userSpaceOnUse" x1="70.395" y1="1.8503" x2="70.395" y2="57.4751" gradientTransform="matrix(1 0 0 -1 0 87.42)">
				<stop  offset="0" style="stop-color:#C9C12B"/>
				<stop  offset="0.0797" style="stop-color:#CBAE26"/>
				<stop  offset="0.1961" style="stop-color:#CC951F"/>
				<stop  offset="0.3179" style="stop-color:#CC7E1A"/>
				<stop  offset="0.4445" style="stop-color:#CB6C17"/>
				<stop  offset="0.5781" style="stop-color:#CA5E14"/>
				<stop  offset="0.7232" style="stop-color:#C95613"/>
				<stop  offset="0.9015" style="stop-color:#C95312"/>
			</linearGradient>
			<path style="fill:url(#SVGID_00000148635288752563647930000015057324344467337896_);" d="M63.24,40.73
				c0.53,0.13,0.9-0.05,1.17-0.49c0.46-0.76,1.21-1.1,2-1.42c1.63-0.64,4.91,0,5.71,1.58c0.01,0.01,0.04,0.01,0.07,0.01
				c0.02-0.04,0.05-0.08,0.07-0.12c1.76-3.93,3.53-7.87,5.29-11.8c-1.55-0.25-3.13-0.38-4.76-0.38c-1.19,0-2.35,0.08-3.5,0.21
				c-1.95,4.02-3.91,8.03-5.86,12.04C63.36,40.49,63.3,40.62,63.24,40.73z"/>
			
				<linearGradient id="SVGID_00000121277993390284866960000008981075771073563053_" gradientUnits="userSpaceOnUse" x1="65.635" y1="1.8503" x2="65.635" y2="57.4751" gradientTransform="matrix(1 0 0 -1 0 87.42)">
				<stop  offset="0" style="stop-color:#C9C12B"/>
				<stop  offset="0.0797" style="stop-color:#CBAE26"/>
				<stop  offset="0.1961" style="stop-color:#CC951F"/>
				<stop  offset="0.3179" style="stop-color:#CC7E1A"/>
				<stop  offset="0.4445" style="stop-color:#CB6C17"/>
				<stop  offset="0.5781" style="stop-color:#CA5E14"/>
				<stop  offset="0.7232" style="stop-color:#C95613"/>
				<stop  offset="0.9015" style="stop-color:#C95312"/>
			</linearGradient>
			<path style="fill:url(#SVGID_00000121277993390284866960000008981075771073563053_);" d="M63.79,53.37
				c-0.23,0.18-0.42,0.4-0.64,0.61c0.39,0.2,0.74,0.13,0.95-0.17c0.26-0.36,0.5-0.74,0.8-1.08c0.2-0.23,0.45-0.47,0.73-0.57
				c0.22-0.08,0.51,0.04,0.8,0.07c0.54-1.04,1.1-2.12,1.69-3.25c-0.22-0.16-0.42-0.31-0.63-0.44c-0.07-0.04-0.19-0.07-0.25-0.04
				c-0.36,0.2-0.85,0.28-0.83,0.85c0,0.07-0.06,0.15-0.1,0.22c-0.28,0.5-0.59,0.99-0.83,1.5C65.06,51.94,64.56,52.76,63.79,53.37z"
				/>
			
				<linearGradient id="SVGID_00000036250038788810304300000015918521005128738701_" gradientUnits="userSpaceOnUse" x1="62.7245" y1="1.8503" x2="62.7245" y2="57.4751" gradientTransform="matrix(1 0 0 -1 0 87.42)">
				<stop  offset="0" style="stop-color:#C9C12B"/>
				<stop  offset="0.0797" style="stop-color:#CBAE26"/>
				<stop  offset="0.1961" style="stop-color:#CC951F"/>
				<stop  offset="0.3179" style="stop-color:#CC7E1A"/>
				<stop  offset="0.4445" style="stop-color:#CB6C17"/>
				<stop  offset="0.5781" style="stop-color:#CA5E14"/>
				<stop  offset="0.7232" style="stop-color:#C95613"/>
				<stop  offset="0.9015" style="stop-color:#C95312"/>
			</linearGradient>
			<path style="fill:url(#SVGID_00000036250038788810304300000015918521005128738701_);" d="M61.45,57.99
				c-0.06,0.78-0.13,1.57-0.18,2.35c-0.01,0.11,0.06,0.23,0.09,0.34c0.04,0,0.08,0,0.13,0c0.89-1.46,1.79-2.92,2.69-4.4
				c-0.72,0.32-1.38,0.67-2.07,0.89C61.65,57.33,61.48,57.56,61.45,57.99z"/>
			
				<linearGradient id="SVGID_00000165230344612925264380000006639530515578748821_" gradientUnits="userSpaceOnUse" x1="62.1194" y1="1.8503" x2="62.1194" y2="57.4751" gradientTransform="matrix(1 0 0 -1 0 87.42)">
				<stop  offset="0" style="stop-color:#C9C12B"/>
				<stop  offset="0.0797" style="stop-color:#CBAE26"/>
				<stop  offset="0.1961" style="stop-color:#CC951F"/>
				<stop  offset="0.3179" style="stop-color:#CC7E1A"/>
				<stop  offset="0.4445" style="stop-color:#CB6C17"/>
				<stop  offset="0.5781" style="stop-color:#CA5E14"/>
				<stop  offset="0.7232" style="stop-color:#C95613"/>
				<stop  offset="0.9015" style="stop-color:#C95312"/>
			</linearGradient>
			<path style="fill:url(#SVGID_00000165230344612925264380000006639530515578748821_);" d="M59.68,48.03
				c0.02,0.02,0.05,0.05,0.07,0.07c0.59-0.24,1.18-0.47,1.76-0.72c0.17-0.07,0.33-0.19,0.47-0.31c0.55-0.44,1.14-0.65,1.83-0.31
				c0.27,0.14,0.47,0.03,0.62-0.22c0.21-0.35,0.17-0.74-0.17-1.13c-0.52-0.61-0.85-1.29-0.89-2.1c0-0.07-0.05-0.15-0.1-0.2
				c-0.28-0.22-0.56-0.44-0.86-0.67C61.51,44.28,60.59,46.16,59.68,48.03z"/>
			
				<linearGradient id="SVGID_00000181788968438772107060000004464076316548826277_" gradientUnits="userSpaceOnUse" x1="72.7317" y1="1.8503" x2="72.7317" y2="57.4751" gradientTransform="matrix(1 0 0 -1 0 87.42)">
				<stop  offset="0" style="stop-color:#C9C12B"/>
				<stop  offset="0.0797" style="stop-color:#CBAE26"/>
				<stop  offset="0.1961" style="stop-color:#CC951F"/>
				<stop  offset="0.3179" style="stop-color:#CC7E1A"/>
				<stop  offset="0.4445" style="stop-color:#CB6C17"/>
				<stop  offset="0.5781" style="stop-color:#CA5E14"/>
				<stop  offset="0.7232" style="stop-color:#C95613"/>
				<stop  offset="0.9015" style="stop-color:#C95312"/>
			</linearGradient>
			<path style="fill:url(#SVGID_00000181788968438772107060000004464076316548826277_);" d="M99.3,45.54
				c-1.49-3.47-3.54-6.5-6.15-9.09c-2.62-2.59-5.67-4.63-9.17-6.11c-1.91-0.81-3.89-1.4-5.94-1.76c-0.04,0.09-0.08,0.18-0.12,0.28
				c-1.77,3.88-3.55,7.75-5.33,11.62c-0.11,0.24-0.1,0.4,0.06,0.63c0.92,1.24,0.96,2.9,0.1,4.17c-0.11,0.16-0.38,0.25-0.6,0.3
				c-0.43,0.1-0.48,0.16-0.31,0.59c-0.12,0.04-0.24,0.07-0.41,0.12c0.06,0.14,0.11,0.27,0.17,0.4c0.23,0.44,0.17,0.63-0.28,0.82
				c-0.08,0.03-0.16,0.12-0.18,0.2c-0.11,0.47-0.2,0.54-0.68,0.52c-0.06,0-0.11,0-0.19,0c-0.01,0.07-0.04,0.13-0.03,0.17
				c0.1,0.37-0.03,0.5-0.41,0.45c-0.07-0.01-0.18,0.05-0.23,0.12c-0.36,0.45-0.36,0.45-0.91,0.3c-0.03-0.01-0.07-0.01-0.11-0.01
				c-0.53,1.09-1.09,2.17-1.58,3.28c-0.09,0.21,0.07,0.52,0.06,0.78c0,0.2-0.02,0.44-0.14,0.58c-0.52,0.62-1.07,1.22-1.62,1.82
				c-0.05,0.06-0.1,0.13-0.15,0.19c-1.11,1.65-2.21,3.31-3.32,4.96c-0.04,0.07-0.09,0.14-0.16,0.26c0.17,0.09,0.32,0.21,0.49,0.26
				c1.04,0.32,2.09,0.63,3.14,0.92c0.23,0.06,0.49,0.06,0.73,0.02c0.49-0.07,0.94-0.02,1.35,0.26c0.22,0.14,0.44,0.27,0.66,0.41
				c0.29,0.18,0.52,0.39,0.44,0.8c-0.02,0.09,0.16,0.3,0.28,0.33c0.36,0.08,0.56,0.3,0.65,0.62c0.25,0.84,0.63,1.61,1.14,2.33
				c0.34,0.48,0.09,0.92-0.51,0.97c-0.09,0.01-0.19,0-0.31,0c0.02,0.09,0.03,0.17,0.06,0.24c0.36,0.89,0.7,1.8,1.1,2.68
				c0.31,0.68,0.79,1.23,1.48,1.56c0.33,0.16,0.67,0.31,1.06,0.05c0.14-0.09,0.44-0.07,0.61,0.02c0.45,0.24,0.81,0.04,1.2-0.12
				c0.48-0.21,0.88-0.14,1.18,0.21c0.32,0.38,0.34,0.83-0.05,1.2c-0.36,0.34-0.8,0.61-1.25,0.94c-0.05,0.78-0.79,1.55-1.85,1.77
				c-0.49,0.1-1,0.14-1.51,0.15c-0.77,0.03-1.51,0.1-2.23,0.43c-0.89,0.41-1.69-0.11-1.81-1.07c-0.04-0.35-0.09-0.64,0.08-0.99
				c0.16-0.35,0-0.77-0.27-1.04c-1.13-1.11-1.97-2.4-2.55-3.87c-0.02-0.05-0.06-0.1-0.09-0.14c-0.43,0.16-0.84,0.36-1.27,0.46
				c-0.28,0.07-0.62,0.06-0.89-0.03c-1.11-0.37-2.22-0.53-3.36-0.2c-0.22,0.06-0.35-0.01-0.38-0.23c-0.04-0.31-0.07-0.63-0.09-0.95
				c-0.01-0.28,0-0.56,0-0.84c-1.62-0.18-3.02-0.92-4.51-1.5c-0.25,0.56-0.67,0.92-1.33,0.93c0.14,0.32,0.28,0.56,0.35,0.83
				c0.15,0.52-0.18,0.9-0.72,0.82c-0.22-0.03-0.43-0.13-0.63-0.21c-0.44-0.18-0.89-0.36-1.33-0.55c-0.06-0.03-0.11-0.09-0.21-0.17
				c0.32-0.09,0.62-0.12,0.87-0.24c0.37-0.16,0.74-0.35,1.06-0.6c0.15-0.12,0.19-0.41,0.21-0.63c0.04-0.27,0.01-0.54,0.01-0.89
				c-0.29-0.13-0.66-0.3-1.03-0.46c-0.83-0.37-1.65-0.75-2.49-1.1c-0.27-0.11-0.37-0.28-0.33-0.54c0.09-0.51,0.19-1.02,0.31-1.52
				c0.02-0.08,0.16-0.13,0.28-0.23c-0.52-1.98,0.17-3.77,1.21-5.49c0.71-1.17,1.62-2.17,2.59-3.1c-0.09-0.27-0.2-0.52-0.27-0.78
				c-0.19-0.79,0.11-1.4,0.72-1.89c1.25-1.01,2.63-1.79,4.18-2.22c0.84-0.23,1.34-0.7,1.71-1.48c0.72-1.53,1.53-3.02,2.28-4.48
				c-0.4-0.1-0.79-0.19-1.16-0.27c0.08,0.65-0.3,1.15-0.81,1.58c-0.33,0.28-0.39,0.27-0.65-0.06c-0.24-0.3-0.46-0.62-0.89-0.72
				c-0.08-0.02-0.21-0.28-0.17-0.36c0.35-0.73,0-1.23-0.52-1.68c-0.01-0.01-0.01-0.04-0.03-0.11c0.96-0.54,1.85-0.16,2.74,0.21
				c0.1-0.71-0.09-0.97-0.8-0.95c-0.64,0.02-1.13-0.22-1.57-0.64c0.01-0.04,0.01-0.07,0.02-0.11c0.12,0.02,0.29,0,0.34,0.07
				c0.31,0.42,0.74,0.5,1.21,0.54c0.19,0.02,0.37,0.08,0.58,0.12c-0.02-0.15-0.06-0.3-0.06-0.44c0-0.33,0.25-0.48,0.56-0.34
				c0.37,0.17,0.54,0.58,0.47,1.14c0.16-0.1,0.29-0.21,0.45-0.26c0.11-0.04,0.25,0.02,0.38,0.03c-0.03,0.12-0.06,0.24-0.11,0.36
				c-0.01,0.04-0.06,0.06-0.05,0.05c0.2,0.15,0.39,0.29,0.61,0.46c0.11-0.15,0.27-0.34,0.37-0.55c2-4.16,4-8.33,5.99-12.49
				c-2.5,0.34-4.9,0.98-7.19,1.96c-3.5,1.49-6.54,3.53-9.13,6.11c-2.59,2.59-4.64,5.62-6.15,9.09c-1.52,3.47-2.27,7.16-2.27,11.07
				c0,3.96,0.76,7.67,2.27,11.11c1.51,3.44,3.57,6.46,6.15,9.05c2.59,2.59,5.63,4.63,9.13,6.11c3.5,1.49,7.23,2.23,11.19,2.23
				s7.69-0.74,11.19-2.23c3.5-1.49,6.55-3.52,9.17-6.11c2.62-2.59,4.67-5.6,6.15-9.05c1.49-3.44,2.23-7.14,2.23-11.11
				C101.53,52.7,100.79,49.01,99.3,45.54z"/>
		</g>
	</g>
</g>
</svg>
