<?xml version="1.0" encoding="utf-8"?>
<!-- Generator: Adobe Illustrator 25.4.1, SVG Export Plug-In . SVG Version: 6.00 Build 0)  -->
<svg version="1.1" id="Capa_1" xmlns="http://www.w3.org/2000/svg" xmlns:xlink="http://www.w3.org/1999/xlink" x="0px" y="0px"
	 viewBox="0 0 39.91 44.68" style="enable-background:new 0 0 39.91 44.68;" xml:space="preserve">
<style type="text/css">
	.st0{fill:#FFFFFF;}
</style>
<path class="st0" d="M19.45-0.01c3.17,0,6.34,0,9.51,0c0.06,1.04,0.01,2.1,0.19,3.12c0.72,4,4.4,7.17,8.45,7.36
	c0.78,0.04,1.55,0.09,2.31,0.14c0,3.15,0,6.24,0,9.31c-3.89,0.26-7.53-0.47-10.96-2.42c0,0.2,0,0.33,0,0.45
	c0,4.07,0,8.14,0.02,12.21c0.01,2.26-0.44,4.41-1.45,6.43c-3.03,6.08-9.77,9.31-16.39,7.65c-5.58-1.4-9.18-4.97-10.7-10.56
	C0.21,32.92,0.14,32.11,0,31.31c0-0.64,0-1.28,0-1.92c0.03-0.13,0.07-0.25,0.08-0.38c0.3-3.16,1.51-5.92,3.64-8.25
	c2.89-3.15,6.51-4.73,10.78-4.75c1.09,0,2.18,0.17,3.26,0.26c0,3.39,0,6.66,0,9.98c-0.53-0.17-1.02-0.34-1.51-0.5
	c-0.87-0.29-1.75-0.37-2.66-0.21c-2.64,0.47-4.44,3.13-3.9,5.77c0.56,2.68,3.26,4.42,5.88,3.8c2.34-0.56,3.83-2.46,3.85-4.94
	c0.01-2.25,0.01-4.51,0.01-6.76C19.44,15.6,19.44,7.8,19.45-0.01z M15.15,18.68c-1.23-0.08-2.4,0.05-3.56,0.32
	C5.53,20.39,1.54,26.73,2.9,32.79c1.71,7.58,10.18,11.6,17.21,7.82c4.06-2.18,6.18-5.72,6.21-10.36c0.04-5.77-0.02-11.54-0.03-17.31
	c0-0.16,0-0.32,0-0.58c1.71,1.3,3.26,2.62,5.14,3.47c1.86,0.85,3.8,1.38,5.86,1.47c0-1.42,0-2.8,0-4.12
	c-6.16-0.97-9.79-4.47-10.98-10.54c-1.4,0-2.81,0-4.25,0c0,0.21,0,0.38,0,0.55c0,8.95,0,17.91-0.01,26.86
	c0,0.52-0.02,1.05-0.11,1.56c-0.8,4.29-4.8,6.96-9.05,6.06c-3.33-0.7-5.83-3.75-5.92-7.07c-0.11-3.83,2.58-6.87,5.76-7.58
	c0.78-0.17,1.59-0.2,2.42-0.3C15.15,21.43,15.15,20.08,15.15,18.68z"/>
</svg>
